<mxfile host="app.diagrams.net" modified="2024-06-15T22:42:55.256Z" agent="Mozilla/5.0 (Windows NT 10.0; Win64; x64) AppleWebKit/537.36 (KHTML, like Gecko) Chrome/126.0.0.0 Safari/537.36" etag="2znwAwAnpKYCX2thVPuv" version="24.5.4" type="device">
  <diagram name="Page-1" id="1QdBpgEkK5B4Z598jFhh">
    <mxGraphModel dx="2359" dy="945" grid="1" gridSize="10" guides="1" tooltips="1" connect="1" arrows="1" fold="1" page="1" pageScale="1" pageWidth="850" pageHeight="1100" math="0" shadow="0">
      <root>
        <mxCell id="0" />
        <mxCell id="1" parent="0" />
        <mxCell id="Yt3TXY320HBuw0m2rHek-11" value="AWS Cloud" style="points=[[0,0],[0.25,0],[0.5,0],[0.75,0],[1,0],[1,0.25],[1,0.5],[1,0.75],[1,1],[0.75,1],[0.5,1],[0.25,1],[0,1],[0,0.75],[0,0.5],[0,0.25]];outlineConnect=0;gradientColor=none;html=1;whiteSpace=wrap;fontSize=12;fontStyle=0;container=1;pointerEvents=0;collapsible=0;recursiveResize=0;shape=mxgraph.aws4.group;grIcon=mxgraph.aws4.group_aws_cloud_alt;strokeColor=#232F3E;fillColor=none;verticalAlign=top;align=left;spacingLeft=30;fontColor=#232F3E;dashed=0;movable=1;resizable=1;rotatable=1;deletable=1;editable=1;locked=0;connectable=1;" vertex="1" parent="1">
          <mxGeometry x="-50" y="50" width="970" height="800" as="geometry" />
        </mxCell>
        <mxCell id="Yt3TXY320HBuw0m2rHek-77" value="Retrieve data" style="fillColor=none;strokeColor=#5A6C86;dashed=1;verticalAlign=top;fontStyle=0;fontColor=#5A6C86;whiteSpace=wrap;html=1;movable=1;resizable=1;rotatable=1;deletable=1;editable=1;locked=0;connectable=1;" vertex="1" parent="Yt3TXY320HBuw0m2rHek-11">
          <mxGeometry x="340" y="590" width="250" height="180" as="geometry" />
        </mxCell>
        <mxCell id="Yt3TXY320HBuw0m2rHek-30" value="Process data" style="fillColor=none;strokeColor=#5A6C86;dashed=1;verticalAlign=top;fontStyle=0;fontColor=#5A6C86;whiteSpace=wrap;html=1;movable=1;resizable=1;rotatable=1;deletable=1;editable=1;locked=0;connectable=1;" vertex="1" parent="Yt3TXY320HBuw0m2rHek-11">
          <mxGeometry x="336.25" y="390" width="250" height="190" as="geometry" />
        </mxCell>
        <mxCell id="Yt3TXY320HBuw0m2rHek-28" value="Check For Credentials&lt;div&gt;&lt;br&gt;&lt;/div&gt;" style="fillColor=none;strokeColor=#5A6C86;dashed=1;verticalAlign=top;fontStyle=0;fontColor=#5A6C86;whiteSpace=wrap;html=1;movable=1;resizable=1;rotatable=1;deletable=1;editable=1;locked=0;connectable=1;" vertex="1" parent="Yt3TXY320HBuw0m2rHek-11">
          <mxGeometry x="309.5" y="60" width="220.5" height="180" as="geometry" />
        </mxCell>
        <mxCell id="Yt3TXY320HBuw0m2rHek-3" value="" style="outlineConnect=0;dashed=0;verticalLabelPosition=bottom;verticalAlign=top;align=center;html=1;shape=mxgraph.aws3.lambda_function;fillColor=#F58534;gradientColor=none;" vertex="1" parent="Yt3TXY320HBuw0m2rHek-11">
          <mxGeometry x="376.25" y="454" width="69" height="72" as="geometry" />
        </mxCell>
        <mxCell id="Yt3TXY320HBuw0m2rHek-18" value="Cloud Watch" style="outlineConnect=0;dashed=0;verticalLabelPosition=bottom;verticalAlign=top;align=center;html=1;shape=mxgraph.aws3.cloudwatch;fillColor=#759C3E;gradientColor=none;" vertex="1" parent="Yt3TXY320HBuw0m2rHek-11">
          <mxGeometry x="776.25" y="320" width="82.5" height="93" as="geometry" />
        </mxCell>
        <mxCell id="Yt3TXY320HBuw0m2rHek-19" value="" style="outlineConnect=0;dashed=0;verticalLabelPosition=bottom;verticalAlign=top;align=center;html=1;shape=mxgraph.aws3.lambda_function;fillColor=#F58534;gradientColor=none;" vertex="1" parent="Yt3TXY320HBuw0m2rHek-11">
          <mxGeometry x="340" y="120" width="69" height="72" as="geometry" />
        </mxCell>
        <mxCell id="Yt3TXY320HBuw0m2rHek-2" value="Api Gateway" style="outlineConnect=0;dashed=0;verticalLabelPosition=bottom;verticalAlign=top;align=center;html=1;shape=mxgraph.aws3.api_gateway;fillColor=#D9A741;gradientColor=none;movable=1;resizable=1;rotatable=1;deletable=1;editable=1;locked=0;connectable=1;" vertex="1" parent="Yt3TXY320HBuw0m2rHek-11">
          <mxGeometry x="120" y="298.5" width="76.5" height="93" as="geometry" />
        </mxCell>
        <mxCell id="Yt3TXY320HBuw0m2rHek-16" value="" style="edgeStyle=orthogonalEdgeStyle;rounded=0;orthogonalLoop=1;jettySize=auto;html=1;entryX=0.145;entryY=0.145;entryDx=0;entryDy=0;entryPerimeter=0;" edge="1" parent="Yt3TXY320HBuw0m2rHek-11" source="Yt3TXY320HBuw0m2rHek-2" target="Yt3TXY320HBuw0m2rHek-19">
          <mxGeometry relative="1" as="geometry">
            <Array as="points">
              <mxPoint x="158" y="130" />
            </Array>
          </mxGeometry>
        </mxCell>
        <mxCell id="Yt3TXY320HBuw0m2rHek-66" value="Authentication" style="edgeLabel;html=1;align=center;verticalAlign=middle;resizable=0;points=[];" vertex="1" connectable="0" parent="Yt3TXY320HBuw0m2rHek-16">
          <mxGeometry x="0.2586" relative="1" as="geometry">
            <mxPoint as="offset" />
          </mxGeometry>
        </mxCell>
        <mxCell id="Yt3TXY320HBuw0m2rHek-47" value="" style="edgeStyle=orthogonalEdgeStyle;htmDepartman barl=1;endArrow=open;elbow=vertical;startArrow=open;startFill=0;endFill=0;strokeColor=#545B64;rounded=0;exitX=1;exitY=0.5;exitDx=0;exitDy=0;exitPerimeter=0;entryX=0.5;entryY=0;entryDx=0;entryDy=0;entryPerimeter=0;" edge="1" parent="Yt3TXY320HBuw0m2rHek-11" source="Yt3TXY320HBuw0m2rHek-19" target="Yt3TXY320HBuw0m2rHek-49">
          <mxGeometry width="100" relative="1" as="geometry">
            <mxPoint x="440" y="170" as="sourcePoint" />
            <mxPoint x="570" y="155.99999999999977" as="targetPoint" />
          </mxGeometry>
        </mxCell>
        <mxCell id="Yt3TXY320HBuw0m2rHek-54" value="" style="edgeStyle=orthogonalEdgeStyle;html=1;endArrow=classic;elbow=vertical;startArrow=none;endFill=1;strokeColor=#545B64;rounded=0;exitX=0.5;exitY=1;exitDx=0;exitDy=0;exitPerimeter=0;dashed=1;entryX=0.5;entryY=1;entryDx=0;entryDy=0;entryPerimeter=0;" edge="1" parent="Yt3TXY320HBuw0m2rHek-11" source="Yt3TXY320HBuw0m2rHek-3" target="Yt3TXY320HBuw0m2rHek-18">
          <mxGeometry width="100" relative="1" as="geometry">
            <mxPoint x="426.25" y="550" as="sourcePoint" />
            <mxPoint x="826.25" y="600" as="targetPoint" />
            <Array as="points">
              <mxPoint x="411" y="560" />
              <mxPoint x="818" y="560" />
            </Array>
          </mxGeometry>
        </mxCell>
        <mxCell id="Yt3TXY320HBuw0m2rHek-55" value="Logs for Metrics and Monitoring" style="edgeLabel;html=1;align=center;verticalAlign=middle;resizable=0;points=[];" vertex="1" connectable="0" parent="Yt3TXY320HBuw0m2rHek-54">
          <mxGeometry x="-0.2962" y="-3" relative="1" as="geometry">
            <mxPoint as="offset" />
          </mxGeometry>
        </mxCell>
        <mxCell id="Yt3TXY320HBuw0m2rHek-56" style="edgeStyle=orthogonalEdgeStyle;rounded=0;orthogonalLoop=1;jettySize=auto;html=1;entryX=0.5;entryY=0;entryDx=0;entryDy=0;entryPerimeter=0;" edge="1" parent="Yt3TXY320HBuw0m2rHek-11" source="Yt3TXY320HBuw0m2rHek-19" target="Yt3TXY320HBuw0m2rHek-64">
          <mxGeometry relative="1" as="geometry" />
        </mxCell>
        <mxCell id="Yt3TXY320HBuw0m2rHek-83" value="User/password authenticated" style="edgeLabel;html=1;align=center;verticalAlign=middle;resizable=0;points=[];" vertex="1" connectable="0" parent="Yt3TXY320HBuw0m2rHek-56">
          <mxGeometry x="-0.4507" y="-3" relative="1" as="geometry">
            <mxPoint as="offset" />
          </mxGeometry>
        </mxCell>
        <mxCell id="Yt3TXY320HBuw0m2rHek-80" style="edgeStyle=orthogonalEdgeStyle;rounded=0;orthogonalLoop=1;jettySize=auto;html=1;" edge="1" parent="Yt3TXY320HBuw0m2rHek-11" source="Yt3TXY320HBuw0m2rHek-58" target="Yt3TXY320HBuw0m2rHek-49">
          <mxGeometry relative="1" as="geometry" />
        </mxCell>
        <mxCell id="Yt3TXY320HBuw0m2rHek-81" value="Get data" style="edgeLabel;html=1;align=center;verticalAlign=middle;resizable=0;points=[];" vertex="1" connectable="0" parent="Yt3TXY320HBuw0m2rHek-80">
          <mxGeometry x="-0.695" y="-1" relative="1" as="geometry">
            <mxPoint as="offset" />
          </mxGeometry>
        </mxCell>
        <mxCell id="Yt3TXY320HBuw0m2rHek-58" value="" style="outlineConnect=0;dashed=0;verticalLabelPosition=bottom;verticalAlign=top;align=center;html=1;shape=mxgraph.aws3.lambda_function;fillColor=#F58534;gradientColor=none;" vertex="1" parent="Yt3TXY320HBuw0m2rHek-11">
          <mxGeometry x="376.25" y="650" width="69" height="72" as="geometry" />
        </mxCell>
        <mxCell id="Yt3TXY320HBuw0m2rHek-49" value="Dynamo DB" style="outlineConnect=0;dashed=0;verticalLabelPosition=bottom;verticalAlign=top;align=center;html=1;shape=mxgraph.aws3.dynamo_db;fillColor=#2E73B8;gradientColor=none;" vertex="1" parent="Yt3TXY320HBuw0m2rHek-11">
          <mxGeometry x="640" y="304.5" width="72" height="81" as="geometry" />
        </mxCell>
        <mxCell id="Yt3TXY320HBuw0m2rHek-57" style="edgeStyle=orthogonalEdgeStyle;rounded=0;orthogonalLoop=1;jettySize=auto;html=1;entryX=0;entryY=0.5;entryDx=0;entryDy=0;entryPerimeter=0;" edge="1" parent="Yt3TXY320HBuw0m2rHek-11" source="Yt3TXY320HBuw0m2rHek-3" target="Yt3TXY320HBuw0m2rHek-49">
          <mxGeometry relative="1" as="geometry">
            <mxPoint x="666.25" y="500" as="targetPoint" />
          </mxGeometry>
        </mxCell>
        <mxCell id="Yt3TXY320HBuw0m2rHek-76" value="Save Data" style="edgeLabel;html=1;align=center;verticalAlign=middle;resizable=0;points=[];" vertex="1" connectable="0" parent="Yt3TXY320HBuw0m2rHek-57">
          <mxGeometry x="-0.7331" y="-1" relative="1" as="geometry">
            <mxPoint x="9" y="-1" as="offset" />
          </mxGeometry>
        </mxCell>
        <mxCell id="Yt3TXY320HBuw0m2rHek-64" value="Api Gateway" style="outlineConnect=0;dashed=0;verticalLabelPosition=bottom;verticalAlign=top;align=center;html=1;shape=mxgraph.aws3.api_gateway;fillColor=#D9A741;gradientColor=none;movable=1;resizable=1;rotatable=1;deletable=1;editable=1;locked=0;connectable=1;" vertex="1" parent="Yt3TXY320HBuw0m2rHek-11">
          <mxGeometry x="336.25" y="270" width="76.5" height="93" as="geometry" />
        </mxCell>
        <mxCell id="Yt3TXY320HBuw0m2rHek-65" style="edgeStyle=orthogonalEdgeStyle;rounded=0;orthogonalLoop=1;jettySize=auto;html=1;entryX=0.5;entryY=0;entryDx=0;entryDy=0;entryPerimeter=0;" edge="1" parent="Yt3TXY320HBuw0m2rHek-11" source="Yt3TXY320HBuw0m2rHek-64" target="Yt3TXY320HBuw0m2rHek-3">
          <mxGeometry relative="1" as="geometry" />
        </mxCell>
        <mxCell id="Yt3TXY320HBuw0m2rHek-68" style="edgeStyle=orthogonalEdgeStyle;rounded=0;orthogonalLoop=1;jettySize=auto;html=1;exitX=0;exitY=0.8;exitDx=0;exitDy=0;exitPerimeter=0;entryX=0;entryY=0.5;entryDx=0;entryDy=0;entryPerimeter=0;" edge="1" parent="Yt3TXY320HBuw0m2rHek-11" source="Yt3TXY320HBuw0m2rHek-64" target="Yt3TXY320HBuw0m2rHek-58">
          <mxGeometry relative="1" as="geometry" />
        </mxCell>
        <mxCell id="Yt3TXY320HBuw0m2rHek-69" style="edgeStyle=orthogonalEdgeStyle;rounded=0;orthogonalLoop=1;jettySize=auto;html=1;dashed=1;entryX=0.5;entryY=1;entryDx=0;entryDy=0;entryPerimeter=0;" edge="1" parent="Yt3TXY320HBuw0m2rHek-11">
          <mxGeometry relative="1" as="geometry">
            <mxPoint x="441.25" y="706.9473684210527" as="sourcePoint" />
            <mxPoint x="817.5" y="415" as="targetPoint" />
          </mxGeometry>
        </mxCell>
        <mxCell id="Yt3TXY320HBuw0m2rHek-70" value="Log for Metris and Monitoring" style="edgeLabel;html=1;align=center;verticalAlign=middle;resizable=0;points=[];" vertex="1" connectable="0" parent="Yt3TXY320HBuw0m2rHek-69">
          <mxGeometry x="-0.6596" relative="1" as="geometry">
            <mxPoint as="offset" />
          </mxGeometry>
        </mxCell>
        <mxCell id="Yt3TXY320HBuw0m2rHek-82" value="Protected endpoints" style="fillColor=none;strokeColor=#147EBA;dashed=1;verticalAlign=top;fontStyle=0;fontColor=#147EBA;whiteSpace=wrap;html=1;" vertex="1" parent="Yt3TXY320HBuw0m2rHek-11">
          <mxGeometry x="309.5" y="260" width="320.5" height="520" as="geometry" />
        </mxCell>
        <mxCell id="Yt3TXY320HBuw0m2rHek-71" style="edgeStyle=orthogonalEdgeStyle;rounded=0;orthogonalLoop=1;jettySize=auto;html=1;" edge="1" parent="1" source="Yt3TXY320HBuw0m2rHek-1" target="Yt3TXY320HBuw0m2rHek-2">
          <mxGeometry relative="1" as="geometry" />
        </mxCell>
        <mxCell id="Yt3TXY320HBuw0m2rHek-72" value="Requests" style="edgeLabel;html=1;align=center;verticalAlign=middle;resizable=0;points=[];" vertex="1" connectable="0" parent="Yt3TXY320HBuw0m2rHek-71">
          <mxGeometry x="-0.4014" relative="1" as="geometry">
            <mxPoint as="offset" />
          </mxGeometry>
        </mxCell>
        <mxCell id="Yt3TXY320HBuw0m2rHek-1" value="" style="aspect=fixed;sketch=0;html=1;dashed=0;whitespace=wrap;verticalLabelPosition=bottom;verticalAlign=top;fillColor=#2875E2;strokeColor=#ffffff;points=[[0.005,0.63,0],[0.1,0.2,0],[0.9,0.2,0],[0.5,0,0],[0.995,0.63,0],[0.72,0.99,0],[0.5,1,0],[0.28,0.99,0]];shape=mxgraph.kubernetes.icon2;kubernetesLabel=1;prIcon=user" vertex="1" parent="1">
          <mxGeometry x="-270" y="340" width="114.58" height="110" as="geometry" />
        </mxCell>
        <mxCell id="Yt3TXY320HBuw0m2rHek-26" value="" style="endArrow=classic;html=1;rounded=0;dashed=1;entryX=0.35;entryY=0;entryDx=0;entryDy=0;entryPerimeter=0;" edge="1" parent="1" target="Yt3TXY320HBuw0m2rHek-18">
          <mxGeometry width="50" height="50" relative="1" as="geometry">
            <mxPoint x="425" y="205" as="sourcePoint" />
            <mxPoint x="758.875" y="352" as="targetPoint" />
            <Array as="points">
              <mxPoint x="425" y="133" />
              <mxPoint x="759" y="135" />
            </Array>
          </mxGeometry>
        </mxCell>
        <mxCell id="Yt3TXY320HBuw0m2rHek-27" value="Logs for Metrics and Monitoring" style="edgeLabel;html=1;align=center;verticalAlign=middle;resizable=0;points=[];" vertex="1" connectable="0" parent="Yt3TXY320HBuw0m2rHek-26">
          <mxGeometry x="-0.1967" y="-1" relative="1" as="geometry">
            <mxPoint x="21" y="-4" as="offset" />
          </mxGeometry>
        </mxCell>
      </root>
    </mxGraphModel>
  </diagram>
</mxfile>
